<svg width="167" height="167" viewBox="0 0 167 167" fill="none" xmlns="http://www.w3.org/2000/svg">
<path d="M66 74.15V93.35H58.8V77.27L61.53 78.77L48.24 87.29L47.73 85.55H59.28V90.05H40.5V85.55L58.8 74.15H66ZM65.52 90.05V85.55H70.92V90.05H65.52ZM98.8125 74.15V93.35H91.6125V77.27L94.3425 78.77L81.0525 87.29L80.5425 85.55H92.0925V90.05H73.3125V85.55L91.6125 74.15H98.8125ZM98.3325 90.05V85.55H103.733V90.05H98.3325Z" fill="white"/>
<path d="M123.27 71.59V76.09H115.65V71.59H123.27ZM115.86 79.3H123.06V94H115.86V79.3Z" fill="white"/>
<circle cx="83.5" cy="83.5" r="82" stroke="white" stroke-width="3"/>
</svg>
